<?xml version="1.0" encoding="UTF-8"?>
<svg id="Layer_1" data-name="Layer 1" xmlns="http://www.w3.org/2000/svg" viewBox="0 0 1334 542" style="background: #fff">
  <defs>
    <style>
      .cls-1 {
        fill: #bd00ff;
      }
    </style>
  </defs>
  <polygon class="cls-1" points="740.63 219.08 792.27 199.85 740.63 179.52 740.63 152.59 829.09 188.31 829.09 210.29 740.63 246 740.63 219.08"/>
  <path d="m265.9,281.71c-24.18,0-42.31,10.99-44.51,34.07h27.47c.55-7.69,5.49-13.19,15.38-13.19,10.99,0,15.38,6.04,15.38,16.48v4.95h-12.64c-26.92,0-48.9,8.79-48.9,34.07v1.1c0,20.88,15.38,30.22,34.07,30.22,13.74,0,23.08-6.59,28.57-14.29v12.09h28.02v-69.23c0-25.82-18.13-36.26-42.86-36.26Zm13.74,70.88c0,10.99-8.79,16.48-18.68,16.48-9.89,0-14.29-4.95-14.29-12.09v-1.1c0-9.34,7.14-13.19,21.43-13.19h11.54v9.89Z"/>
  <path d="m374.14,389.41c-28.57,0-49.45-17.58-49.45-52.75v-1.65c0-35.16,21.98-53.85,49.45-53.85,23.63,0,42.86,12.09,45.05,39.01h-27.47c-1.65-9.89-7.14-16.48-17.03-16.48-12.09,0-20.88,9.89-20.88,30.22v3.3c0,20.88,7.69,30.22,20.88,30.22,9.89,0,17.03-7.14,18.68-18.68h26.37c-1.65,23.63-17.58,40.66-45.6,40.66Z"/>
  <path d="m481.84,389.41c-28.57,0-49.45-17.58-49.45-52.75v-1.65c0-35.16,21.98-53.85,49.45-53.85,23.63,0,42.86,12.09,45.05,39.01h-27.47c-1.65-9.89-7.14-16.48-17.03-16.48-12.09,0-20.88,9.89-20.88,30.22v3.3c0,20.88,7.69,30.22,20.88,30.22,9.89,0,17.03-7.14,18.68-18.68h26.37c-1.65,23.63-17.58,40.66-45.6,40.66Z"/>
  <path d="m610.41,355.34c-2.2,7.14-8.24,13.19-19.23,13.19-12.09,0-20.33-7.14-21.43-25.82h67.03v-12.64c0-34.62-21.43-48.9-47.25-48.9-28.02,0-49.45,19.23-49.45,53.85v2.2c0,34.62,20.33,52.2,50,52.2,27.47,0,43.41-14.84,47.25-34.07h-26.92Zm-20.88-53.85c11.54,0,18.68,6.59,19.23,21.98h-39.01c2.2-16.48,10.44-21.43,19.78-21.98Z"/>
  <path d="m654.36,283.91h29.12v15.38c4.95-9.89,15.38-17.58,31.32-17.58,18.68,0,31.32,11.54,31.32,36.26v69.23h-29.12v-64.83c0-12.09-4.95-17.58-15.38-17.58-9.89,0-18.13,6.04-18.13,19.23v63.19h-29.12v-103.3h0Z"/>
  <path d="m799.42,252.59v31.32h19.78v21.43h-19.78v48.9c0,7.69,3.3,11.54,10.44,11.54,4.4,0,7.14-.55,9.89-1.65v22.53c-3.3,1.1-9.34,2.2-16.48,2.2-22.53,0-32.97-10.44-32.97-31.32v-52.2h-12.09v-21.43h12.09v-19.23l29.12-12.09Z"/>
  <path d="m927.99,387.21h-29.12v-15.38c-4.95,9.89-14.84,17.58-30.22,17.58-18.68,0-32.42-11.54-32.42-35.71v-69.78h29.12v65.93c0,12.09,4.95,17.58,14.84,17.58s18.13-6.59,18.13-19.23v-63.74h29.12v102.75h.55Z"/>
  <path d="m949.42,283.91h29.12v19.23c6.04-13.74,15.93-20.33,31.32-20.33v28.57c-19.78,0-31.32,6.04-31.32,23.08v53.3h-29.12v-103.85Z"/>
  <path d="m1088.98,355.34c-2.2,7.14-8.24,13.19-19.23,13.19-12.09,0-20.33-7.14-21.43-25.82h67.03v-12.64c0-34.62-21.43-48.9-47.25-48.9-28.02,0-49.45,19.23-49.45,53.85v2.2c0,34.62,20.33,52.2,50,52.2,26.92,0,42.86-14.84,47.25-34.07h-26.92Zm-21.43-53.85c11.54,0,18.68,6.59,19.23,21.98h-39.01c2.75-16.48,10.99-21.43,19.78-21.98Z"/>
</svg>