<?xml version="1.0" encoding="UTF-8"?><svg id="OBJECTS" xmlns="http://www.w3.org/2000/svg" viewBox="0 0 1000.79182 841.32401"><defs><style>.cls-1{fill:none;stroke:#fff;stroke-miterlimit:10;stroke-width:.5px;}</style></defs><path class="cls-1" d="m890.25872,747.17481c-55.3729-10.6763-113.6921-5.6094-166.394,14.4565-38.0189,14.4754-72.719,36.3708-109.5539,53.6381-36.835,17.26719-77.5159,30.0617-117.8124,24.4794-21.6603-3.0007-42.4385-11.2784-60.9203-22.9658-21.033-13.3009-39.5781-31.5678-49.5275-54.3782-16.4958-37.8191-7.3412-81.5795,5.0025-120.9499,12.3436-39.3704,27.8512-79.5617,23.2346-120.5627-5.4194-48.1314-40.1701-90.9269-84.9481-109.3915-44.778-18.4645-97.76242-13.3735-140.09932,10.155-22.942,12.7498-42.827,30.4103-65.51718,43.603-22.69022,13.1927-50.081,21.8191-75.17842,14.13688,0,0-32.6941-9.50948-48.3117-49.69028"/><path class="cls-1" d="m19.9342,407.09382c15.0736,38.8244,46.4047,48.6393,46.8322,49.4835,24.187,8.0886,50.6112.7621,72.6381-10.8633,21.9779-11.7059,41.3443-27.6221,63.6465-38.8698,41.0653-20.88962,92.33032-24.2662,135.90262-5.3102,43.4953,18.858,77.5625,60.781,83.8883,107.7499,5.3649,39.9831-8.3031,79.1928-18.9561,117.60468-10.6493,38.41572-18.2596,80.97022-1.5661,117.86191,10.0822,22.2647,28.3089,40.21209,48.8906,53.4386,18.1007,11.6369,38.3751,20.0304,59.481,23.409,39.3277,6.3427,78.9722-4.857,114.9997-20.2272,36.102-15.402,70.1321-35.3355,107.3369-48.0502,51.9564-17.756,109.1613-21.2077,163.0443-10.6359"/><path class="cls-1" d="m39.6353,384.48222c14.5297,37.4681,44.4977,47.5885,45.35282,49.2769,23.27658,8.4948,48.77438,2.553,70.09778-7.5898,21.3061-10.1345,40.149-24.3125,61.7758-34.1366,39.8596-18.1064,89.33932-19.9129,131.70592-.4655,42.2127,19.2516,75.5962,60.3021,82.8286,106.1083,6.1131,38.9653-5.7154,77.1934-14.6777,114.6467-8.9549,37.4611-15.0209,78.8096,1.8702,114.774,10.2151,21.7189,28.1235,39.3468,48.2538,52.499,17.7195,11.58639,37.4903,20.0957,58.0418,23.8522,38.3588,7.1031,76.9734-2.5007,112.187-15.975,35.3758-13.5363,68.7459-31.5005,105.1198-42.4622,51.2359-15.44061,107.3014-17.2828,159.6946-6.8154"/><path class="cls-1" d="m59.3365,361.87072c13.9857,36.1117,42.5905,46.5375,43.8733,49.0702,22.3662,8.9011,46.9108,4.30368,67.5575-4.31632,20.6076-8.60348,38.9297-21.04068,59.9051-29.40338,38.61-15.3933,86.34822-15.5595,127.50932,4.3792,40.93,19.6451,73.6299,59.82318,81.7687,104.4668,6.8614,37.9475-3.1275,75.1939-10.3991,111.6886-7.2606,36.5065-11.7822,76.6491,5.3064,111.6861,10.348,21.1732,27.9381,38.4816,47.617,51.5594,17.3384,11.5359,36.6054,20.1609,56.6025,24.2954,37.39,7.8635,74.9819-.1426,109.3744-11.7228,34.6569-11.6692,67.3774-27.655,102.9027-36.8742,50.5415-13.1162,105.4415-13.3579,156.3449-2.9948"/><path class="cls-1" d="m79.0376,339.25922c13.4418,34.7553,40.6836,45.4865,42.3939,48.86338,21.4558,9.30752,45.0414,6.05512,65.0172-1.04268,19.9036-7.0721,37.70542-17.7687,58.0345-24.6701,37.3512-12.68022,83.30932-11.1125,123.31252,9.2239,39.6003,20.1315,71.6636,59.3441,80.7089,102.8251,7.6097,36.9297-.5397,73.1945-6.1206,108.7306-5.5662,35.5519-8.5435,74.4886,8.7428,108.59818,10.4808,20.62752,27.7526,37.61631,46.9801,50.61981,16.9573,11.4854,35.7306,20.183,55.1633,24.7386,36.4402,8.5428,72.9981,2.21859,106.5616-7.4706,33.9461-9.7996,66.0271-23.7959,100.6858-31.2863,49.8739-10.7786,103.5816-9.4328,152.9951.8258"/><path class="cls-1" d="m98.7387,316.6477c12.8979,33.39902,38.7766,44.43562,40.91442,48.65672,20.54558,9.7137,43.16538,7.8063,62.477,2.2309,19.193-5.5412,36.47508-14.4975,56.16378-19.937,36.08182-9.96872,80.30662-6.7425,119.11582,14.0686,38.3063,20.5414,69.6974,58.8652,79.6491,101.1835,8.358,35.9119,2.0481,71.195-1.8421,105.7727-3.8718,34.5972-5.3048,72.3279,12.1791,105.5101,10.6136,20.0819,27.5672,36.7512,46.3433,49.6803,16.5761,11.4349,34.849,20.2403,53.724,25.1818,35.4777,9.2882,71.0226,4.5844,103.749-3.2184,33.2436-7.926,64.6946-19.9199,98.4687-25.69831,49.2334-8.42328,101.7217-5.50788,149.6455,4.64632"/><path class="cls-1" d="m118.4399,294.0361c12.3539,32.04273,36.8695,43.38482,39.4349,48.45012,19.6352,10.12,41.2816,9.5558,59.9367,5.50438,18.4749-4.01218,35.2383-11.228,54.2931-15.20378,34.80073-7.26122,77.30443-2.3754,114.91913,18.9133,37.013,20.9482,67.7311,58.3862,78.5893,99.542,9.1064,34.894,4.636,69.19548,2.4364,102.8146-2.1774,33.6426-2.066,70.1674,15.6155,102.4222,10.7464,19.5362,27.3817,35.8859,45.7064,48.7408,16.195,11.3843,33.9675,20.29888,52.2848,25.62488,34.5153,10.036,69.0552,6.95641,100.9363,1.03381,32.5497-6.04681,63.3793-16.0234,96.2516-20.1104,48.619-6.0446,99.8618-1.5829,146.2958,8.4669"/><path class="cls-1" d="m138.14112,271.4246c11.80988,30.6863,34.96238,42.3338,37.95538,48.2433,18.7248,10.52633,39.3892,11.30182,57.3964,8.77803,17.7486-2.4874,33.9944-7.96213,52.42242-10.47063,33.5068-4.561,74.3031,1.9885,110.7224,23.75812,35.7206,21.3518,65.7649,57.90718,77.5295,97.9003,9.8547,33.8762,7.2238,67.1961,6.715,99.8566-.4831,32.688,1.1726,68.0068,19.0517,99.33428,10.8793,18.99042,27.1963,35.02072,45.0696,47.80122,15.8139,11.33378,33.0861,20.359,50.8455,26.0681,33.5531,10.7864,67.0961,9.33668,98.1237,5.2861,31.8641-4.1599,62.0796-12.1028,94.0345-14.5225,48.0287-3.6368,98.002,2.34208,142.9461,12.2874"/><path class="cls-1" d="m157.8422,248.813c11.266,29.33,33.0554,41.283,36.476,48.0367,17.8144,10.9326,37.4883,13.0412,54.8562,12.0515,17.0139-.9695,32.7433-4.702,50.55172-5.7373,32.2003-1.8722,71.3027,6.3491,106.5256,28.6027,34.4292,21.75212,63.7986,57.42822,76.4697,96.25882,10.603,32.8583,9.8116,65.1966,10.9935,96.8985,1.2113,31.7334,4.4113,65.8463,22.488,96.2464,11.0122,18.4447,27.0109,34.1554,44.4328,46.8616,15.4328,11.2833,32.2045,20.42068,49.4062,26.5114,32.5908,11.5395,65.1444,11.72728,95.311,9.5382,31.1864-2.2631,60.8213-10.4682,91.8175-8.9345,47.4162,2.346,96.1421,6.267,139.5964,16.108"/><path class="cls-1" d="m177.5434,226.2015c10.722,27.9736,31.1483,40.232,34.9964,47.83,16.9041,11.3388,35.5798,14.7711,52.316,15.3251,16.2719.5385,31.48612-1.4502,48.68102-1.0042,30.8828.801,68.3038,10.7063,102.329,33.44743,33.1392,22.149,61.8323,56.9493,75.4098,94.6172,11.3513,31.8405,12.3995,63.1971,15.272,93.94058,2.9057,30.77872,7.65,63.68562,25.9244,93.15842,11.145,17.899,26.8253,33.2902,43.7959,45.922,15.0516,11.2328,31.3227,20.4839,47.967,26.95458,31.6279,12.29572,63.2044,13.116,92.4983,13.79042,30.509.7024,59.6777-6.56442,89.6005-3.3466,46.654,5.017,94.2821,10.192,136.2466,19.9286"/><path class="cls-1" d="m197.2445,203.59c10.1781,26.6172,29.2413,39.1811,33.517,47.6232,15.9937,11.7452,33.6657,16.4883,49.7757,18.5987,15.52473,2.0337,30.22443,1.7908,46.81033,3.729,29.5574,3.454,65.3067,15.06,98.1323,38.2922,31.8511,22.54242,59.866,56.47032,74.3501,92.97562,12.0995,30.8226,14.9872,61.1976,19.5505,90.9825,4.5999,29.8241,10.8887,61.5251,29.3606,90.0705,11.2779,17.3533,26.6399,32.42488,43.1591,44.9824,14.6705,11.1823,30.4405,20.5488,46.5277,27.3978,30.6644,13.055,61.2572,16.5479,89.6857,18.0426,29.848,1.5694,58.2454-.1631,87.3834,2.2414,46.3604,3.8256,92.4223,14.117,132.8969,23.7491"/><path class="cls-1" d="m216.94569,180.9784c9.6342,25.2609,27.3342,38.1303,32.0375,47.4166,15.0834,12.1514,31.75,18.19,47.23542,21.8722,14.776,3.5136,28.9612,5.0189,44.9396,8.4622,28.2295,6.0835,62.3118,19.4102,93.9356,43.1369,30.5651,22.9323,57.8998,55.9913,73.2903,91.33402,12.8478,29.8049,17.575,59.1982,23.829,88.0245,6.2943,28.8695,14.1274,59.3645,32.797,86.9826,11.4107,16.8076,26.4544,31.5597,42.5222,44.0428,14.2894,11.1318,29.5578,20.61538,45.0885,27.841,29.6997,13.8176,59.3171,18.9812,86.8729,22.2948,29.1826,3.5093,56.9747,3.8838,85.1664,7.8293,45.8162,6.4122,90.5624,18.042,129.5472,27.5697"/><path class="cls-1" d="m236.64679,158.3669c9.09032,23.9045,25.4272,37.0793,30.5581,47.2099,14.173,12.5577,29.83782,19.875,44.69512,25.1457,14.0307,4.9776,27.7006,8.2329,43.069,13.1954,26.9059,8.6881,59.3194,23.7568,89.7388,47.9816,29.2817,23.3188,55.9335,55.51242,72.2305,89.69242,13.5962,28.7871,20.1629,57.1988,28.1075,85.0665,7.9887,27.9149,17.3661,57.204,36.2333,83.8947,11.5436,16.2618,26.269,30.6944,41.8854,43.1032,13.9083,11.08128,28.6742,20.6837,43.6492,28.2842,28.7336,14.5835,57.3753,21.4312,84.0603,26.547,28.5153,5.4668,55.6983,7.9653,82.9493,13.4173,45.2629,9.0556,88.7025,21.9669,126.1975,31.3902"/><path class="cls-1" d="m256.34799,135.7554c8.5463,22.5481,21.803,37.083,29.07852,47.0031,10.9684,14.9553,27.9347,21.5445,42.1549,28.4193,13.2938,6.4271,26.4468,11.4335,41.1983,17.9287,25.5944,11.2694,56.3303,28.0997,85.5421,52.8263,28.0012,23.7018,53.9673,55.03332,71.1707,88.0508,14.3445,27.76922,22.7507,55.19932,32.386,82.10842,9.6831,26.9603,20.6049,55.0435,39.6696,80.8068,11.6765,15.7161,26.0836,29.8292,41.2486,42.1636,13.5271,11.0308,27.7896,20.7538,42.21,28.7274,27.7654,15.3526,55.4281,23.89778,81.2476,30.7993,27.8422,7.4421,54.4101,12.0801,80.7322,19.0052,44.6897,11.75728,86.8426,25.8919,122.8478,35.2108"/><path class="cls-1" d="m276.04912,113.1438c8.0024,21.1918,20.0386,35.9172,27.5991,46.7965,10.3879,14.9477,26.0452,23.2016,39.6146,31.6929,12.5697,7.8657,25.2039,14.6228,39.3276,22.6618,24.3016,13.8322,53.3448,32.4392,81.3454,57.671,26.7243,24.0816,52.001,54.55443,70.1109,86.40922,15.0928,26.75138,25.3385,53.1998,36.6646,79.1505,11.3774,26.0056,23.8435,52.8828,43.1059,77.7187,11.8093,15.1705,25.8981,28.964,40.6117,41.2241,13.146,10.9803,26.9038,20.8255,40.7707,29.1706,26.7949,16.1251,53.4718,26.3797,78.4349,35.05148,27.1593,9.43472,53.1041,16.22552,78.5153,24.59312,44.0851,14.5168,84.9827,29.81688,119.4981,39.0314"/><path class="cls-1" d="m295.75032,90.5323c7.4584,19.8354,18.3293,34.7238,26.1196,46.5898,9.8284,14.9704,24.1723,24.8515,37.0743,34.9664,11.8606,9.2984,23.9747,17.8047,37.4569,27.395,23.032,16.3833,50.3636,36.7754,77.1488,62.5157,25.4512,24.4584,50.0347,54.0755,69.051,84.76772,15.8411,25.7335,27.9264,51.2003,40.9431,76.1924,13.0718,25.051,27.0822,50.72228,46.5422,74.6308,11.9421,14.6248,25.7127,28.0988,39.9749,40.2846,12.7649,10.9297,26.0165,20.8988,39.3315,29.6137,25.8214,16.9007,51.503,28.8746,75.6222,39.3037,26.4626,11.4424,51.7744,20.3972,76.2982,30.1811,43.4386,17.33,83.1228,33.7418,116.1484,42.8519"/><path class="cls-1" d="m315.45142,67.9207c6.9145,18.4792,16.6776,33.5049,24.6402,46.3831,9.2901,15.0253,22.3161,26.4998,34.534,38.24,11.1669,10.7304,22.7599,20.9836,35.5863,32.1282,21.7869,18.9304,47.387,41.1086,72.952,67.3605,24.1826,24.8323,48.0684,53.5964,67.9912,83.12602,16.5894,24.7157,30.5142,49.2009,45.2216,73.2344,14.7662,24.0964,30.3209,48.56168,49.9786,71.5429,12.0749,14.079,25.5272,27.2335,39.338,39.345,12.3838,10.8792,25.1275,20.9736,37.8922,30.0569,24.8446,17.6793,49.5193,31.3793,72.8096,43.55588,25.7493,13.46222,50.4163,24.58972,74.0811,35.769,42.7405,20.19082,81.2629,37.66692,112.7987,46.67252"/><path class="cls-1" d="m335.15262,45.3092c6.3705,17.1228,15.0848,32.263,23.1607,46.1764,8.7729,15.1144,20.4751,28.1509,31.9937,41.5135,10.4869,12.1658,21.5589,24.1636,33.7156,36.8615,20.565,21.4805,44.4158,45.4389,68.7553,72.2051,22.9188,25.2039,46.1022,53.1175,66.9314,81.48453,17.3377,23.6978,33.1021,47.20137,49.5001,70.2763,16.4606,23.1418,33.5597,46.4012,53.4149,68.455,12.2078,13.5333,25.3417,26.3683,38.7012,38.4054,12.0026,10.82868,24.2365,21.04968,36.453,30.5001,23.8638,18.46058,47.5186,33.8902,69.9968,47.8081,25.0174,15.4901,49.0263,28.7966,71.8641,41.357,41.9836,23.0901,79.4031,41.5918,109.449,50.493"/><path class="cls-1" d="m354.85372,22.6977c5.8266,15.7664,13.5517,31.0011,21.6812,45.9697,8.2766,15.2393,18.6462,29.8082,29.4535,44.787,9.8179,13.6076,20.3695,27.3479,31.8449,41.5947,19.3629,24.0391,41.4823,49.74,64.5586,77.0498,21.6903,25.5481,44.1359,52.6385,65.8716,79.8429,18.0861,22.68002,35.6899,45.20192,53.7787,67.31832,18.1549,22.1872,36.7983,44.2406,56.8511,65.3671,12.3407,12.9876,25.1563,25.503,38.0644,37.4658,11.6215,10.7782,23.3325,21.13958,35.0137,30.9434,22.8576,19.269,45.5008,36.40318,67.1842,52.06018,24.2661,17.52192,47.6022,33.01142,69.647,46.94492,41.1631,26.0173,77.5432,45.5168,106.0993,54.3137"/><path class="cls-1" d="m374.55492.0861c77.2036,210.5975,477.4893,614.03292,626.1605,661.77912"/></svg>