<?xml version="1.0" encoding="UTF-8"?><svg id="OBJECTS" xmlns="http://www.w3.org/2000/svg" viewBox="0 0 548.81892 99.2336"><defs><style>.cls-1,.cls-2{opacity:.75;}.cls-1,.cls-3{fill:none;stroke:#fff;stroke-miterlimit:10;stroke-width:.5px;}</style></defs><path class="cls-1" d="m545.29302,10.0866h-229.331c-6.5566,0-51.055-2.3605-57.4038-1.0953-2.6001.5182-20.6821,1.6593-23.2982,2.1269-8.6738,1.5501-69.3382-4.5764-78.1372-3.5293-3.509.4176-27.4392,1.9378-30.6392,3.126-3.2,1.1883-27.7095,2.0681-31.047,1.1326-3.2364-.9071-26.04992-3.4443-29.46772-3.125-1.0979.1027-8.5087.497-9.4179.9982-1.2689.6993-11.8249,1.0795-13.3836,1.0795H.2033"/><path class="cls-1" d="m545.29302,25.9573h-231.105c-13.113,0-44.9603-4.7211-57.6579-2.1905-5.2003,1.0364-17.7574,3.3184-22.9897,4.2536-17.3476,3.1003-60.3979-9.1526-77.996-7.0584-7.018.8352-23.6218,3.8756-30.0218,6.252-6.4,2.3765-24.2377,4.136-30.9128,2.265-6.4728-1.8142-21.85552-6.8887-28.69112-6.2497-2.1959.2052-7.3734.9938-9.1919,1.9961-2.5378,1.3987-10.09118,2.159-13.2085,2.159H.2315"/><path class="cls-1" d="m545.29302,88.3931h-230.2179c-9.8349,0-48.0078-3.5407-57.5309-1.6429-3.9003.7773-19.2198,2.4889-23.1441,3.1903-13.0106,2.3252-64.868-6.8645-78.0665-5.2938-5.2635.6263-25.5305,2.9067-30.3305,4.689-4.8,1.7823-25.9735,3.1019-30.9799,1.6987-4.8546-1.3607-23.9526-5.1665-29.07942-4.6873-1.6469.154-7.941.7454-9.3049,1.4971-1.90328,1.049-10.9581,1.6193-13.2961,1.6193H.2174"/><path class="cls-1" d="m545.29302,72.8714h-231.105c-13.113,0-44.9603-4.721-57.6579-2.1905-5.2003,1.0363-17.7574,3.3185-22.9897,4.2536-17.3476,3.1003-60.3979-9.1526-77.996-7.0584-7.018.8351-23.6218,3.8756-30.0218,6.252s-24.2377,4.136-30.9128,2.2651c-6.4728-1.8142-21.85552-6.8887-28.69112-6.2499-2.1959.2053-7.3734.9939-9.1919,1.9962-2.5378,1.3986-10.09118,2.159-13.2085,2.159H.2315"/><path class="cls-1" d="m545.29302,57.3497h-231.9919c-16.3914,0-41.9131-5.9013-57.7851-2.7382-6.5003,1.2955-16.295,4.1482-22.8354,5.3171-21.6845,3.8754-55.9278-11.4408-77.9255-8.823-8.7724,1.0439-21.7131,4.8445-29.7131,7.815-8,2.9706-22.5018,5.1699-30.8456,2.8313-8.0909-2.2678-19.75832-8.611-28.30292-7.8123-2.7448.2566-6.8056,1.2423-9.0788,2.4952-3.1722,1.7483-9.2243,2.6988-13.1209,2.6988H.2455"/><path class="cls-1" d="m545.29302,41.828h-232.8789c-19.6697,0-38.8658-7.0815-57.9121-3.2858-7.8004,1.5546-14.8327,4.9778-22.6812,6.3804-26.0213,4.6505-51.4577-13.7289-77.8548-10.5876-10.527,1.2528-19.8045,5.8134-29.4045,9.378-9.6001,3.5647-20.7659,6.204-30.7785,3.3976-9.70913-2.7213-17.66123-10.3331-27.91462-9.3747-3.29378.3078-6.2379,1.4908-8.96578,2.9942-3.80672,2.098-8.35752,3.2385-13.03342,3.2385H.25962"/><g class="cls-2"><path class="cls-3" d="m545.27032,20.1422c-13.2714-8.1663-26.023-14.3898-40.3822-19.9089"/><path class="cls-3" d="m545.23532,49.8646c-23.9693-21.6272-50.9672-38.3796-80.241-49.6313"/><path class="cls-3" d="m548.61312,99.0917C517.40822,53.8268,473.86802,18.9776,425.10052.2333"/><path class="cls-3" d="m508.71942,99.0917C477.51442,53.8268,433.97422,18.9776,385.20672.2333"/><path class="cls-3" d="m468.82562,99.0917C437.62072,53.8268,394.08042,18.9776,345.31302.2333"/><path class="cls-3" d="m428.93182,99.0917C397.72682,53.8268,354.18662,18.9776,305.41912.2333"/><path class="cls-3" d="m389.03802,99.0917C357.83312,53.8268,314.29282,18.9776,265.52542.2333"/><path class="cls-3" d="m349.14422,99.0917C317.93932,53.8268,274.39912,18.9776,225.63162.2333"/><path class="cls-3" d="m309.25042,99.0917C278.04552,53.8268,234.50532,18.9776,185.73782.2333"/><path class="cls-3" d="m269.35662,99.0917C238.15172,53.8268,194.61152,18.9776,145.84402.2333"/><path class="cls-3" d="m229.46292,99.0917C198.25792,53.8268,154.71772,18.9776,105.95022.2333"/><path class="cls-3" d="m189.56912,99.0917C158.36422,53.8268,114.82392,18.9776,66.0564.2333"/><path class="cls-3" d="m149.67532,99.0917C118.47032,53.8268,74.9301,18.9776,26.16262.2333"/><path class="cls-3" d="m109.78152,99.0917C81.5593,58.1535,43.2473,25.735.1038,6.0448"/><path class="cls-3" d="m.1734,28.86c26.7863,18.6152,50.5714,42.4635,69.7143,70.2317"/><path class="cls-3" d="m29.9939,99.0917C21.0664,86.1418,11.1293,74.0443.349,62.9326"/></g></svg>