<?xml version="1.0" encoding="UTF-8"?><svg id="OBJECTS" xmlns="http://www.w3.org/2000/svg" viewBox="0 0 966.84988 608.9882"><defs><style>.cls-1{fill:none;stroke:#fff;stroke-miterlimit:10;stroke-width:.5px;}</style></defs><path class="cls-1" d="m68.7818,28.555C76.0165,11.6822,99.5421-1.4213,117.2983.4235c17.7562,1.8449,37.529,13.4033,41.5173,37.48585,21.56011,130.18935,132.0186,125.55165,189.6478,99.45655,11.9145-5.395,24.9514,4.996,22.3457,17.8129-8.0085,39.3917.6997,126.0522,62.5462,173.7044,128.3672,98.9058,224.87509,1.5011,339.85739-45.2442,63.7592-25.9209,120.4491-15.3554,193.603-5.261"/><path class="cls-1" d="m62.5351,31.67745c7.249-15.15005,29.6681-26.27375,47.1844-23.74795,16.967,2.4466,36.1182,13.5346,40.6072,36.35005,23.7625,120.77345,127.5103,121.49375,183.7914,100.81135,11.4217-4.1973,23.5002,5.4979,21.8496,17.6803-5.1997,38.377,6.1723,120.0439,65.1725,166.1809,122.36659,95.6667,214.94119,10.9508,324.35509-24.9117,61.6583-20.2096,116.41091-6.0727,183.5833,4.3826"/><path class="cls-1" d="m56.2883,34.80005c7.2634-13.42745,28.5661-22.59205,45.8524-19.36465,16.1717,3.0194,34.6924,13.6541,39.6972,35.2144,25.8411,111.322,122.7828,117.4309,177.935,102.1661,10.8893-3.014,22.075,6.0281,21.3534,17.5477-2.347,37.468,11.6448,114.0356,67.7988,158.6575,116.366,92.4276,205.33689,20.5185,308.85269-4.5793,59.7715-14.4918,112.3727,3.21,173.5638,14.0261"/><path class="cls-1" d="m50.0416,37.92255c7.2778-11.70475,27.457-18.93445,44.5203-14.98115,15.3731,3.5617,33.2472,13.76175,38.7872,34.0786,27.7697,101.8399,117.8134,113.3037,172.0785,103.5208,10.314-1.8594,20.686,6.5851,20.8573,17.4153.5799,36.6618,17.1173,108.0272,70.425,151.1339,110.3655,89.1885,196.1016,30.3283,293.35049,15.7533,58.126-8.7115,108.3344,12.4927,163.5441,23.6695"/><path class="cls-1" d="m43.7948,41.04505c7.2922-9.9822,26.3449-15.30445,43.1882-10.5978,14.5742,4.0727,31.7767,13.8589,37.8773,32.94295,29.5171,92.337,112.603,109.027,166.2221,104.8756,9.6967-.7508,19.3427,7.1636,20.3611,17.2827,3.6175,35.9435,22.5898,102.0189,73.0513,143.6105,104.365,85.9493,187.5651,27.1655,277.84819,36.0857,56.5211,5.5845,104.2961,21.7754,153.5245,33.3131"/><path class="cls-1" d="m37.5481,44.16765c7.3066-8.2596,25.2344-11.7056,41.8561-6.2144,13.7786,4.5519,30.2731,13.94845,36.9672,31.80715,31.0484,82.8309,107.7029,113.7727,160.3657,106.2303,8.96-1.2832,18.0528,7.7548,19.865,17.1503,6.8055,35.2823,28.0623,96.0104,75.6776,136.0869,98.3644,82.7102,180.8363,36.8204,262.34589,56.4182,54.10461,13.0087,100.2578,31.0582,143.5048,42.9566"/><path class="cls-1" d="m31.3013,47.29015c7.321-6.5369,24.1313-8.1409,40.5241-1.8309,12.99,5.00015,28.7263,14.03685,36.0572,30.67135,32.3256,73.3504,101.6834,99.5911,154.5093,107.5851,8.3809,1.2682,16.8194,8.3461,19.3688,17.0177,10.1807,34.6292,33.5349,90.0021,78.3039,128.5635,92.3638,79.471,170.2568,62.7478,246.84349,76.7507,54.4746,9.9599,96.2196,40.3408,133.4853,52.6"/><path class="cls-1" d="m25.0546,50.4128c7.3353-4.81435,23.0424-4.61335,39.192,2.5524,12.2127,5.4189,27.1237,14.1357,35.1472,29.5357,33.3133,63.9406,96.22641,94.2311,148.6528,108.9397,7.7236,2.167,15.6404,8.9229,18.8727,16.8852,13.7692,33.9183,39.0074,83.9938,80.9302,121.04,86.3632,76.2319,161.7705,74.9085,231.34119,97.0832,53.3573,17.0069,92.1813,49.6235,123.4656,62.2435"/><path class="cls-1" d="m18.8078,53.5353c7.3498-3.0917,21.9753-1.1248,37.86,6.9359,11.4509,5.8107,25.45,14.2654,34.2371,28.3999,33.9872,54.6693,91.01191,88.3893,142.7964,110.2945,7.1003,3.0034,14.5066,9.4702,18.3766,16.7527,17.5759,33.0737,44.4799,77.9854,83.5565,113.5165,80.3627,72.9927,152.9559,87.6807,215.83889,117.4156,51.9732,24.5762,88.143,58.9063,113.446,71.8871"/><path class="cls-1" d="m12.5611,56.6578c7.3641-1.369,20.9385,2.3235,36.5278,11.3193,10.7087,6.1794,23.6889,14.4603,33.3272,27.2642,34.3503,45.632,86.2151,82.1324,136.94,111.6492,6.5312,3.8006,13.4035,9.9761,17.8804,16.6202,21.5777,32.023,49.9524,71.9771,86.1828,105.9931,74.3621,69.7536,143.5982,100.8388,200.33659,137.7481,50.1099,32.5973,84.1048,68.1889,103.42631,81.5305"/><path class="cls-1" d="m6.3143,59.7804c7.3786.3536,19.9409,5.7322,35.1958,15.7027,9.9899,6.5293,21.8288,14.7733,32.4172,26.1284,34.4607,36.9561,81.9397,75.6126,131.0835,113.004,6.0268,4.5855,12.3135,10.4327,17.3844,16.4877,25.7213,30.7131,55.4248,65.9687,88.809,98.4695,68.3615,66.5145,133.58779,114.0932,184.83419,158.0806,47.6382,40.8902,80.0666,77.4716,93.40681,91.174"/><path class="cls-1" d="m.0676,62.9029c70.3074,19.7451,520.92729,487.2746,551.6406,545.9694"/></svg>