<?xml version="1.0" encoding="UTF-8"?><svg id="OBJECTS" xmlns="http://www.w3.org/2000/svg" viewBox="0 0 165.0789 601.4198"><defs><style>.cls-1{fill:none;stroke:#fff;stroke-miterlimit:10;stroke-width:.5px;}</style></defs><path class="cls-1" d="m164.8289,601.4198c0-23.8882-164.5789-23.8882-164.5789-47.7763s164.5789-23.8887,164.5789-47.7773c0-23.8899-164.5789-23.8899-164.5789-47.7798s164.5789-23.8903,164.5789-47.7807S.25,386.4162.25,362.5266c0-23.8869,164.5789-23.8869,164.5789-47.7739,0-23.8898-164.5789-23.8898-164.5789-47.7796s164.5789-23.8902,164.5789-47.7804S.25,195.3014.25,171.4102s164.5789-23.8906,164.5789-47.7811C164.8289,99.7353.25,99.7353.25,75.8414s164.5789-23.8938,164.5789-47.7876"/><path class="cls-1" d="m164.8289,596.7442c0-23.8882-164.5789-23.8882-164.5789-47.7763s164.5789-23.8887,164.5789-47.7773c0-23.8899-164.5789-23.8899-164.5789-47.7798s164.5789-23.8903,164.5789-47.7807S.25,381.7406.25,357.851c0-23.8869,164.5789-23.8869,164.5789-47.7739,0-23.8898-164.5789-23.8898-164.5789-47.7796s164.5789-23.8902,164.5789-47.7804S.25,190.6258.25,166.7346s164.5789-23.8906,164.5789-47.7811C164.8289,95.0597.25,95.0597.25,71.1658s164.5789-23.8938,164.5789-47.7876"/><path class="cls-1" d="m164.8289,592.0686c0-23.8882-164.5789-23.8882-164.5789-47.7763s164.5789-23.8887,164.5789-47.7773c0-23.8899-164.5789-23.8899-164.5789-47.7798s164.5789-23.8903,164.5789-47.7807S.25,377.065.25,353.1754c0-23.8869,164.5789-23.8869,164.5789-47.7739,0-23.8898-164.5789-23.8898-164.5789-47.7796s164.5789-23.8902,164.5789-47.7804S.25,185.9502.25,162.059s164.5789-23.8906,164.5789-47.7811C164.8289,90.3841.25,90.3841.25,66.49018s164.5789-23.89378,164.5789-47.78758"/><path class="cls-1" d="m164.8289,587.3929c0-23.8882-164.5789-23.8882-164.5789-47.7763s164.5789-23.8887,164.5789-47.7773c0-23.8899-164.5789-23.8899-164.5789-47.7798s164.5789-23.8903,164.5789-47.7807S.25,372.3893.25,348.4997c0-23.8869,164.5789-23.8869,164.5789-47.7739,0-23.8898-164.5789-23.8898-164.5789-47.7796s164.5789-23.8902,164.5789-47.7804S.25,181.2745.25,157.3833s164.5789-23.8906,164.5789-47.7811C164.8289,85.7084.25,85.7084.25,61.81455S164.8289,37.9207,164.8289,14.0269"/><path class="cls-1" d="m164.8289,582.7173c0-23.8882-164.5789-23.8882-164.5789-47.7763s164.5789-23.8887,164.5789-47.7773c0-23.8899-164.5789-23.8899-164.5789-47.7798s164.5789-23.8903,164.5789-47.7807S.25,367.7137.25,343.8241c0-23.8869,164.5789-23.8869,164.5789-47.7739,0-23.8898-164.5789-23.8898-164.5789-47.7796s164.5789-23.8902,164.5789-47.7804S.25,176.5989.25,152.7077s164.5789-23.8906,164.5789-47.7811C164.8289,81.0328.25,81.0328.25,57.13893S164.8289,33.2451,164.8289,9.3513"/><path class="cls-1" d="m164.8289,578.0417c0-23.8882-164.5789-23.8882-164.5789-47.7763s164.5789-23.8887,164.5789-47.7773c0-23.8899-164.5789-23.8899-164.5789-47.7798s164.5789-23.8903,164.5789-47.7807S.25,363.0381.25,339.1485c0-23.8869,164.5789-23.8869,164.5789-47.7739,0-23.8898-164.5789-23.8898-164.5789-47.7796s164.5789-23.8902,164.5789-47.7804S.25,171.9233.25,148.0321s164.5789-23.8906,164.5789-47.7811C164.8289,76.3572.25,76.3572.25,52.4633S164.8289,28.5695,164.8289,4.6757"/><path class="cls-1" d="m164.8289,573.366c0-23.8882-164.5789-23.8882-164.5789-47.7763s164.5789-23.8887,164.5789-47.7773c0-23.8899-164.5789-23.8899-164.5789-47.7798s164.5789-23.8903,164.5789-47.7807S.25,358.3624.25,334.4728c0-23.8869,164.5789-23.8869,164.5789-47.7739,0-23.8898-164.5789-23.8898-164.5789-47.7796s164.5789-23.8902,164.5789-47.7804S.25,167.2476.25,143.3564s164.5789-23.8906,164.5789-47.7811C164.8289,71.68153.25,71.68153.25,47.7877S164.8289,23.8938,164.8289,0"/></svg>