<?xml version="1.0" encoding="UTF-8"?><svg id="OBJECTS" xmlns="http://www.w3.org/2000/svg" viewBox="0 0 196.4207 196.9157"><defs><style>.cls-1{fill:none;stroke:#fff;stroke-miterlimit:10;stroke-width:.3px;}</style></defs><ellipse class="cls-1" cx="98.21037" cy="98.38767" rx="98.06037" ry="12.73402"/><ellipse class="cls-1" cx="98.2104" cy="55.87982" rx="88.4596" ry="11.48727"/><ellipse class="cls-1" cx="98.2104" cy="48.30147" rx="83.4502" ry="10.83672"/><ellipse class="cls-1" cx="98.2104" cy="62.2739" rx="91.1134" ry="11.8319"/><ellipse class="cls-1" cx="98.2104" cy="71.43823" rx="94.0716" ry="12.21607"/><ellipse class="cls-1" cx="98.21037" cy="80.83417" rx="96.47937" ry="12.52872"/><ellipse class="cls-1" cx="98.2104" cy="88.8192" rx="97.4068" ry="12.6492"/><ellipse class="cls-1" cx="98.21037" cy="40.7231" rx="79.07307" ry="10.2684"/><ellipse class="cls-1" cx="98.2104" cy="33.14472" rx="72.3766" ry="9.39877"/><ellipse class="cls-1" cx="98.21037" cy="25.56633" rx="64.80787" ry="8.41588"/><ellipse class="cls-1" cx="98.21041" cy="17.988" rx="54.78549" ry="7.1144"/><ellipse class="cls-1" cx="97.91867" cy="10.4096" rx="40.88787" ry="5.3097"/><ellipse class="cls-1" cx="98.2104" cy="2.8312" rx="20.6469" ry="2.6812"/><ellipse class="cls-1" cx="98.2104" cy="141.0359" rx="88.4596" ry="11.4873"/><ellipse class="cls-1" cx="98.2104" cy="148.61422" rx="83.4502" ry="10.83672"/><ellipse class="cls-1" cx="98.2104" cy="134.64182" rx="91.1134" ry="11.83192"/><ellipse class="cls-1" cx="98.2104" cy="125.47747" rx="94.0716" ry="12.21607"/><ellipse class="cls-1" cx="98.21037" cy="116.08153" rx="96.47932" ry="12.52873"/><ellipse class="cls-1" cx="98.2104" cy="108.0965" rx="97.4068" ry="12.6492"/><ellipse class="cls-1" cx="98.21037" cy="156.1926" rx="79.07302" ry="10.2684"/><ellipse class="cls-1" cx="98.2104" cy="163.771" rx="72.3766" ry="9.3988"/><ellipse class="cls-1" cx="98.21037" cy="171.3494" rx="64.80782" ry="8.4159"/><ellipse class="cls-1" cx="98.21041" cy="178.9277" rx="54.78551" ry="7.1144"/><ellipse class="cls-1" cx="98.5021" cy="186.5061" rx="40.8879" ry="5.3097"/><ellipse class="cls-1" cx="98.2104" cy="194.0845" rx="20.6469" ry="2.6812"/></svg>