<?xml version="1.0" encoding="utf-8"?>
<!-- Generator: Adobe Illustrator 27.2.0, SVG Export Plug-In . SVG Version: 6.00 Build 0)  -->
<svg version="1.1" id="Ebene_1" xmlns="http://www.w3.org/2000/svg" xmlns:xlink="http://www.w3.org/1999/xlink" x="0px" y="0px"
	 viewBox="0 0 119.3 138" style="enable-background:new 0 0 119.3 138;" xml:space="preserve">
<style type="text/css">
	.st0{fill:#FFFFFF;}
</style>
<path id="IF_Logo_00000041263181026047482130000001163901777003980697_" class="st0" d="M119.3,103.5v-23v-23l0,0v-23L99.4,23
	L79.5,11.5L59.6,0l0,0l0,0l0,0l0,0L39.8,11.7l0,0l0,0l0,0l0,0v22.9L19.9,23.2l0,0l0,0l0,0L0,34.7l0,0l0,0v23l0,0v23l0,0v23L19.9,115
	l0,0l0,0l19.9,11.5L59.7,138l0,0V92.1l0,0v-23v-23l19.9-11.5l19.9,11.5L79.6,57.6v23l0,0l19.9-11.5V92l-19.9,11.5l0,0l0,0v23l0,0
	L99.5,115l0,0l0,0L119.3,103.5L119.3,103.5z M99.4,51.9L99.4,51.9L99.4,51.9L99.4,51.9z M39.8,57.6v22.9l0,0v22.9L19.9,91.9v-23l0,0
	v-23L39.8,57.6z M53.5,19.6L53.5,19.6L53.5,19.6L53.5,19.6z"/>
</svg>
