<?xml version="1.0" encoding="utf-8"?>
<!-- Generator: Adobe Illustrator 27.4.0, SVG Export Plug-In . SVG Version: 6.00 Build 0)  -->
<svg version="1.1" id="OBJECTS" xmlns="http://www.w3.org/2000/svg" xmlns:xlink="http://www.w3.org/1999/xlink" x="0px" y="0px"
	 viewBox="0 0 956.7 589.7" style="enable-background:new 0 0 956.7 589.7;" xml:space="preserve">
<style type="text/css">
	.st0{fill:#FFFFFF;}
</style>
<path class="st0" d="M29.7,485.8c-6.9-19.3,1.7-48.1,18.2-60.6c15-11.4,40.5-18.5,63.1-1.2c23.1,17.7,46.2,29.3,68.8,34.7
	c20.2,4.8,40.2,4.6,59.3-0.5c23.2-6.2,45.5-20,64.7-39.9c16.1-16.7,29.7-37.4,38.4-58.4c2.7-6.5,8.4-10.7,15.4-11.2
	c7-0.6,13.4,2.7,17,8.6c10.9,17.6,34.5,43.8,68.4,64.6c26.2,16,67.5,34.1,116,29.4c140.9-13.8,174.4-110,210-211.8
	c10-28.6,20.3-58.1,33.1-86.1c30-65.5,78.8-99.9,140.6-143.5c4.5-3.2,9.1-6.4,13.7-9.7l0.3,0.4c-4.6,3.3-9.2,6.5-13.7,9.7
	C881.3,53.6,832.5,88,802.5,153.4c-12.8,27.9-23.2,57.5-33.1,86.1c-35.6,102-69.2,198.4-210.4,212.2c-48.6,4.7-90-13.4-116.3-29.5
	c-33.9-20.8-57.7-47.1-68.6-64.7c-3.6-5.8-9.8-8.9-16.6-8.4c-6.8,0.6-12.4,4.6-15,10.9c-8.7,21-22.4,41.8-38.5,58.6
	c-19.2,19.9-41.7,33.8-64.9,40.1c-19.2,5.2-39.3,5.4-59.6,0.5c-22.7-5.4-45.9-17.1-69-34.8c-22.4-17.2-47.7-10.1-62.5,1.2
	c-16.3,12.3-24.9,40.9-18,60L29.7,485.8z"/>
<path class="st0" d="M27,493.2c-2.7-8.6-2-19.7,2-30.5c3.9-10.7,10.7-20,18.5-25.5c15.6-10.8,39.9-16.9,61.4-1.5
	c42,30.1,83.4,40.4,123.3,30.6c50-12.3,86.6-54.2,104.1-89.2c2.9-5.8,8.6-9.6,15.2-10.1c6.7-0.5,12.9,2.4,16.7,7.8
	c26.4,37.1,98.9,93.2,180.8,85.8c134.4-12.2,170.9-98.8,209.5-190.5c11.1-26.3,22.5-53.4,36.5-79c30.1-55.1,75.4-85.2,127.8-120.1
	c8.4-5.6,17.1-11.4,25.8-17.4l0.3,0.4c-8.8,6-17.5,11.8-25.9,17.4c-52.4,34.9-97.7,65-127.7,120C781.5,216.8,770,244,759,270.3
	c-19.6,46.4-38.1,90.3-68.9,125.1c-16.6,18.7-35.2,32.9-56.8,43.6C609,450.9,581.4,458.1,549,461c-5,0.5-10,0.7-14.9,0.7
	c-75.9,0-141.5-51.7-166.3-86.7c-3.7-5.2-9.8-8-16.3-7.6c-6.5,0.5-12,4.2-14.8,9.8c-17.6,35.1-54.3,77.1-104.4,89.5
	c-40,9.9-81.6-0.5-123.7-30.7c-21.3-15.3-45.4-9.2-60.8,1.5c-16.2,11.3-25.9,37.8-20.3,55.4L27,493.2z"/>
<path class="st0" d="M24.3,500.5c-4.4-16.7,6.2-40.7,22.7-51.4c7.5-4.8,33.9-19.1,59.8-1.7c39.9,26.6,79.7,35.7,118.3,27.2
	c60.7-13.4,96-64.8,105.4-80.2c3.1-5.1,8.7-8.5,15-8.9c6.4-0.5,12.4,2,16.4,6.9c16.1,19.4,41.7,39.4,68.6,53.5
	c35.8,18.7,73.3,27.1,108.6,24.1c30.8-2.6,57.2-9,80.8-19.6c21.1-9.5,39.4-22.1,56.2-38.7c31.1-30.9,51-69.8,72.1-111
	c12.2-23.9,24.9-48.6,39.9-71.6c30.1-46,72.5-72.1,117.4-99.7c11.6-7.1,23.5-14.5,35.5-22.3l0.3,0.4c-12,7.8-23.9,15.2-35.5,22.3
	c-44.8,27.6-87.2,53.6-117.2,99.5c-15,23-27.7,47.7-39.9,71.6c-21.1,41.2-41.1,80.2-72.2,111.1c-16.8,16.6-35.2,29.3-56.3,38.8
	c-23.6,10.6-50.1,17-80.9,19.6c-35.4,3-73-5.4-108.9-24.2c-26.9-14.1-52.6-34.1-68.8-53.6c-3.9-4.7-9.8-7.2-16-6.7
	c-6.1,0.4-11.5,3.7-14.6,8.7c-9.4,15.5-44.8,66.9-105.7,80.4c-38.8,8.6-78.7-0.6-118.7-27.3c-25.7-17.2-51.8-3-59.2,1.7
	c-16.4,10.5-26.9,34.3-22.5,50.8L24.3,500.5z"/>
<path class="st0" d="M21.6,507.8c-3.1-15.7,8.4-37.1,25-46.8c6-3.5,15.7-7.9,27.3-9c11.2-1,21.6,1.4,30.9,7.1
	c23.7,14.6,47.9,23.2,71.7,25.7c21,2.2,41.9-0.4,62.2-7.6c32.2-11.4,63.5-35.3,86-65.6c3.4-4.6,8.8-7.4,14.9-7.8
	c6.1-0.4,11.9,1.8,15.9,6c17.1,17.7,42.8,35.6,68.7,47.9c34.9,16.6,71.1,24,104.8,21.5c29.2-2.2,54.6-7.8,77.6-17.1
	c20.6-8.3,38.8-19.5,55.7-34.1c31.5-27.2,52.8-61.3,75.4-97.4c13.4-21.4,27.2-43.5,43.2-63.8c30.2-38.3,68.8-59.5,109.5-82
	c14-7.7,28.5-15.7,42.5-24.4l0.3,0.4c-14.1,8.7-28.6,16.7-42.6,24.4c-40.7,22.4-79.2,43.6-109.4,81.8c-16,20.3-29.8,42.4-43.2,63.8
	c-22.6,36.2-44,70.3-75.5,97.5c-17,14.6-35.2,25.8-55.8,34.2c-23.1,9.3-48.5,14.9-77.8,17.1c-33.8,2.5-70.1-5-105-21.6
	c-26-12.4-51.7-30.3-68.9-48c-3.9-4.1-9.6-6.2-15.5-5.8c-5.9,0.4-11.2,3.1-14.5,7.6c-22.5,30.3-53.9,54.3-86.2,65.7
	c-20.4,7.2-41.4,9.8-62.5,7.6c-23.9-2.5-48.2-11.2-71.9-25.8c-9.2-5.7-19.5-8-30.6-7c-11.5,1-21.1,5.4-27,8.9
	C30.3,471.1,19,492.3,22,507.8L21.6,507.8z"/>
<path class="st0" d="M18.9,515.1c-1.8-14.5,10.5-33.3,27.3-42.1c6-3.2,15.5-7.1,26.5-8.2c10.9-1,21,1,30,6.1
	c42.4,23.6,85.7,28.9,128.5,15.6c42.9-13.3,73.4-41.7,87.8-57.4c7.6-8.3,21.7-9,30.2-1.5c35.7,31,101.6,65.7,169.9,61.3
	c46.3-3,84.7-16,117.4-39.7c29.1-21.1,51-48.4,72.1-74.8c19.5-24.4,39.8-49.7,65.4-69.4c36.2-27.9,73.2-48,109-67.3
	c13.9-7.5,28.3-15.3,42.2-23.4l0.2,0.4c-13.9,8-28.3,15.8-42.2,23.4c-35.8,19.4-72.8,39.4-109,67.3c-25.6,19.7-45.8,44.9-65.3,69.3
	c-21.2,26.4-43,53.7-72.2,74.9c-32.8,23.8-71.3,36.8-117.6,39.8c-4,0.3-7.9,0.4-11.9,0.4c-64.1,0-124.7-32.5-158.4-61.8
	c-8.4-7.3-22.2-6.6-29.6,1.5c-14.4,15.8-45,44.3-88,57.6c-43,13.3-86.3,8-128.9-15.6c-9.4-5.2-29.2-12-56.1,2.1
	c-16.7,8.6-28.8,27.3-27.1,41.5L18.9,515.1z"/>
<path class="st0" d="M16.1,522.5c-0.4-13.1,12.6-29.6,29.6-37.4c11.4-5.3,33.8-12.7,54.9-2.4c51.3,25.3,96.6,22.5,125.6,15.8
	c35.4-8.3,67-27.2,86.9-52c3-3.8,8-5.9,14-6c5.7-0.1,11.4,1.6,15.8,4.8c18.8,13.6,86.4,57.5,166.3,53.2
	c95.4-5.2,141.4-51.1,185.9-95.4c22.8-22.8,44.4-44.2,72-59.9c32.2-18.3,62.9-32.8,92.7-46.9c20.3-9.6,39.5-18.7,57.7-28.2l0.2,0.4
	c-18.2,9.6-37.4,18.7-57.7,28.2c-29.8,14-60.5,28.6-92.7,46.9c-27.5,15.7-49,37.1-71.9,59.9c-44.6,44.4-90.6,90.3-186.3,95.6
	c-80.2,4.4-147.8-39.7-166.7-53.2c-8.2-6-22.7-6.8-29.1,1.2c-19.9,24.9-51.7,43.9-87.2,52.2c-29.1,6.8-74.5,9.6-126-15.8
	c-20.9-10.2-43.1-2.9-54.5,2.4c-16.9,7.8-29.8,24-29.4,37L16.1,522.5z"/>
<path class="st0" d="M13.9,529.8l-0.5,0c1.1-11.8,14.8-25.9,31.9-32.8c20.1-8.2,38.1-9.1,53.3-2.6c37.3,15.9,76.6,19.4,116.9,10.6
	c30.7-6.7,62.5-21,91.9-41.3c8.1-5.6,20.6-6,29.2-1c15.2,8.9,39.5,21.6,69.6,31.3c32.2,10.4,63.5,15,93,13.7
	c103-4.4,157-47.2,209.2-88.5c17.3-13.7,33.6-26.6,51.6-38.2c32.7-21.1,67.7-31.9,98.7-41.4c18.5-5.7,36-11.1,51-18.1l0.2,0.5
	c-14.9,7-32.5,12.4-51,18.1c-30.9,9.5-65.9,20.3-98.5,41.4c-18,11.6-34.3,24.5-51.6,38.2c-52.3,41.4-106.3,84.2-209.4,88.6
	c-29.6,1.3-60.9-3.3-93.2-13.7c-30.1-9.7-54.5-22.4-69.7-31.3c-8.4-4.9-20.7-4.5-28.6,1c-29.5,20.3-61.3,34.6-92.1,41.4
	c-40.4,8.8-79.8,5.2-117.2-10.7c-15.1-6.4-32.9-5.5-52.9,2.6C28.6,504.3,15,518.2,13.9,529.8z"/>
<path class="st0" d="M11.2,537.3l-0.5-0.1c2.1-8.6,13.6-21,34.2-28.2c27-9.3,42.4-6.1,51.6-2.8c34.6,12.1,71.9,14.8,110.8,8.1
	c30.6-5.3,62.3-16.5,94.3-33.2c8.3-4.4,20.1-4.6,28.6-0.7c38.7,17.8,97.7,38.7,159.1,36.9c43.4-1.3,82.9-9.1,120.8-23.6
	c33.5-12.8,61.7-29.3,88.9-45.1c18.3-10.7,35.6-20.8,54.1-29.6c34.7-16.6,68.9-24.1,99.1-30.7c19.3-4.2,36-7.9,49.7-13.2l0.2,0.5
	c-13.8,5.3-30.4,9-49.8,13.2c-30.2,6.6-64.4,14.1-99,30.7c-18.4,8.8-35.7,18.9-54,29.5c-27.3,15.9-55.4,32.3-89,45.2
	c-38,14.6-77.6,22.3-121,23.6c-61.5,1.9-120.6-19.1-159.3-36.9c-8.4-3.9-20-3.6-28.2,0.7c-32,16.7-63.8,27.9-94.4,33.2
	c-39,6.8-76.4,4-111.1-8.1c-19-6.8-38.4-1.6-51.2,2.8C27.6,515.5,13.7,526.9,11.2,537.3z"/>
<path class="st0" d="M8.5,544.6l-0.5-0.2c3.9-8.9,18.5-18.3,36.5-23.5c13.7-4,31.8-7.9,49.9-3.1c31.9,8.5,67.1,10.3,104.7,5.4
	c30.5-4,62.2-12.1,96.8-24.9c8.5-3.2,19.5-3.3,28.1-0.4c58.5,20,109.4,29.4,155.5,28.7c90.6-1.5,153.7-26.4,209.5-48.5
	c19.7-7.8,38.2-15.1,57.3-21.2c37.5-12.1,73.2-16.7,101.9-20.4c18.4-2.4,34.2-4.4,46.1-7.9l0.1,0.5c-11.9,3.4-27.8,5.5-46.2,7.9
	c-28.7,3.7-64.3,8.3-101.8,20.4c-19,6.1-37.6,13.5-57.2,21.2c-55.8,22-119,47-209.6,48.5c-46.1,0.7-97.1-8.7-155.7-28.7
	c-8.4-2.9-19.3-2.7-27.7,0.4c-34.6,12.8-66.3,21-96.9,25c-37.6,4.9-72.9,3.1-104.9-5.4c-18-4.8-36-0.9-49.7,3.1
	C26.9,526.5,12.4,535.9,8.5,544.6z"/>
<path class="st0" d="M5.7,552l-0.4-0.3c5.4-7.3,20.2-14.6,38.7-18.9c14.1-3.3,30.9-6.4,48.3-3.3c53.2,9.2,117.9,4.6,197.7-13.9
	c8.7-2,19-2,27.5-0.1c44.7,10.1,97.6,20.5,151.8,20.5c83.6-0.1,149.4-15,207.5-28.1c21.6-4.9,42-9.5,62.1-13.1
	c42.4-7.6,80.8-9.1,108.9-10.2c16.2-0.6,29.1-1.1,38.4-2.5l0.1,0.5c-9.4,1.4-22.2,1.9-38.5,2.5c-28.1,1.1-66.5,2.6-108.8,10.2
	c-20.1,3.6-40.5,8.2-62.1,13.1c-58.1,13.1-124,28-207.7,28.1c-54.3,0-107.3-10.4-152-20.5c-8.4-1.9-18.6-1.9-27.3,0.1
	c-79.9,18.5-144.6,23.1-197.9,13.9c-17.3-3-34,0-48.1,3.3C25.8,537.6,11,544.8,5.7,552z"/>
<path class="st0" d="M3,559.4L2.6,559c6.5-5.6,21.5-10.8,41-14.3c14.4-2.5,29.9-4.7,46.7-3.5c61.4,4.1,135.9-2.2,194.1-8.2
	c8.7-0.9,18.3-0.9,27,0.1c49.5,6,98,11.4,148.3,12.3c72.7,1.3,137.9-3.5,195.4-7.7c27.3-2,53-3.9,77.3-5
	c57.1-2.5,103.3,0.3,130.9,1.9c6.2,0.4,11.5,0.7,15.6,0.9l0,0.5c-4.1-0.2-9.4-0.5-15.6-0.9c-27.6-1.7-73.8-4.5-130.9-1.9
	c-24.3,1.1-50,3-77.3,5c-57.5,4.2-122.7,9-195.5,7.7c-50.3-0.9-98.9-6.3-148.3-12.3c-8.6-1-18.2-1-26.8-0.1
	c-58.1,6-132.8,12.3-194.1,8.2c-16.7-1.1-32.2,1-46.5,3.5C24.3,548.7,9.4,553.9,3,559.4z"/>
<path class="st0" d="M870.7,589.7c-33.7-11.7-224.5-27-434.3-34.8c-108.1-4-204.8-5.4-279.4-3.9c-87.1,1.7-139.8,7-156.7,15.8
	L0,566.4c31.5-16.4,194.7-20.9,436.4-11.9c209.8,7.8,400.7,23.1,434.5,34.8L870.7,589.7z"/>
</svg>
