<?xml version="1.0" encoding="utf-8"?>
<!-- Generator: Adobe Illustrator 27.4.0, SVG Export Plug-In . SVG Version: 6.00 Build 0)  -->
<svg version="1.1" id="OBJECTS" xmlns="http://www.w3.org/2000/svg" xmlns:xlink="http://www.w3.org/1999/xlink" x="0px" y="0px"
	 viewBox="0 0 757.4 671.1" style="enable-background:new 0 0 757.4 671.1;" xml:space="preserve">
<style type="text/css">
	.st0{fill:#FFFFFF;}
</style>
<g>
	<path class="st0" d="M9.5,236.5c24.7-2.5,49.2,0.7,71.1,9.1c22.4,8.7,42.5,23.3,58.1,42.2c15.9,19.3,26,41.8,29.1,65.1
		c4.8,35.7-5.9,71.5-16.2,106.1c-1.5,4.9-3,9.9-4.4,14.8c-4.4,15.3-10.5,38.4-12,61.4c-1.5,23,1.7,42.6,9.6,59.8
		c9.6,20.7,27.1,39.1,50.8,53.4c19.5,11.8,40.8,19.3,61.5,21.7c18.7,2.2,39,0.5,60.2-5c17.8-4.6,36.5-11.8,57.2-22.1
		c14.1-7,28-14.7,41.5-22.3c21.5-12,43.7-24.3,66.8-33.7c26-10.5,53.5-17.4,81.7-20.5c28.2-3.1,56.6-2.2,84.2,2.5l0.1-0.5
		c-27.7-4.7-56.1-5.5-84.3-2.5c-28.3,3.1-55.8,10-81.8,20.6c-23.2,9.4-45.4,21.8-66.9,33.8c-13.5,7.5-27.4,15.3-41.5,22.2
		c-45.3,22.5-82.5,31-117.1,27c-20.6-2.4-41.8-9.9-61.3-21.6c-23.6-14.2-41.1-32.6-50.6-53.2c-17.7-38.2-8.7-82.6,2.4-120.9
		c1.4-4.9,2.9-10,4.4-14.8c10.4-34.6,21.1-70.4,16.2-106.3c-3.1-23.3-13.2-45.9-29.2-65.3c-15.7-19-35.8-33.7-58.3-42.4
		c-21.9-8.5-46.5-11.6-71.3-9.1c-3,0.3-6,0.7-8.9,1.1L0,237.8C3.2,237.3,6.4,236.8,9.5,236.5z"/>
	<path class="st0" d="M21,224.7c24-1.6,47.8,2.1,69,10.8c21.8,8.9,41.4,23.4,56.7,42c15.6,19,25.8,41,29.3,63.7
		c5.4,34.8-3.7,69.6-12.6,103.2c-1.3,4.8-2.6,9.8-3.8,14.7c-9.5,37.5-16.8,80.8,1,118c9.7,20.2,27,38.3,50.1,52.5
		c19.1,11.7,39.9,19.4,60.1,22.1c33.6,4.7,70.1-2.6,114.7-22.7c13.9-6.3,27.6-13.3,40.9-20.2c21-10.8,42.7-21.9,65.3-30.2
		c25.5-9.3,52.6-15.3,80.4-17.7c27.6-2.4,55.2-1.2,82.3,3.5l0.1-0.5c-27.1-4.7-54.8-5.9-82.4-3.5c-27.9,2.4-54.9,8.3-80.5,17.7
		c-22.6,8.3-44.4,19.4-65.4,30.2c-13.3,6.8-27,13.9-40.9,20.1c-44.5,20.1-80.9,27.4-114.4,22.7c-20.1-2.8-40.8-10.4-59.9-22.1
		c-23.1-14.1-40.3-32.2-49.9-52.3c-17.8-37.1-10.5-80.3-1-117.7c1.2-4.9,2.6-9.9,3.8-14.7c8.9-33.7,18-68.5,12.6-103.4
		c-3.6-22.8-13.8-44.9-29.5-63.9c-15.4-18.7-35.1-33.3-56.9-42.2c-21.3-8.7-45.2-12.4-69.3-10.8c-3.1,0.2-6.2,0.5-9.3,0.9l-0.5,0.6
		C14.4,225.2,17.7,224.9,21,224.7z"/>
	<path class="st0" d="M99.4,225.3c43.6,18.7,76.9,59.6,85,104.1c6.1,33.8-1.6,67.6-8.9,100.3c-1.1,4.8-2.2,9.7-3.2,14.6
		c-7.9,36.5-13.6,78.7,4.4,114.9c9.8,19.6,26.9,37.5,49.5,51.5c18.7,11.6,39,19.5,58.6,22.6c32.6,5.3,68.1-0.6,111.9-18.4
		c13.7-5.6,27.2-11.9,40.3-18c20.5-9.6,41.8-19.5,63.8-26.7c25-8.1,51.6-13.1,79-14.8c26.9-1.7,53.9-0.1,80.3,4.6l0.1-0.5
		c-26.5-4.7-53.6-6.2-80.5-4.6c-27.4,1.7-54.1,6.7-79.2,14.9c-22.1,7.2-43.3,17.1-63.9,26.7c-13.1,6.1-26.7,12.5-40.3,18
		c-43.7,17.8-79.2,23.7-111.7,18.4c-19.6-3.1-39.8-10.9-58.5-22.6c-22.5-14-39.6-31.8-49.3-51.3c-17.9-36-12.2-78.1-4.3-114.5
		c1-4.8,2.2-9.8,3.2-14.6c7.4-32.7,15-66.6,8.9-100.5c-8-44.6-41.5-85.7-85.3-104.5C75.7,214.5,49,210.6,22.7,213l-0.5,0.5
		C48.6,211,75.4,214.9,99.4,225.3z"/>
	<path class="st0" d="M108.8,215.1c20.5,9.3,39.2,23.7,54,41.6c15.1,18.3,25.5,39.3,29.9,60.9c6.7,32.8,0.6,65.6-5.3,97.4
		c-0.9,4.7-1.8,9.6-2.6,14.4c-6.3,35.6-10.3,76.7,7.8,111.7c9.9,19.1,26.7,36.6,48.8,50.6c18.5,11.7,37.8,19.5,57.2,23.1
		c17.5,3.3,35.8,3.4,55.9,0.2c16.2-2.5,33.6-7.2,53.3-14.3c13.5-4.9,26.9-10.5,39.8-15.9c20-8.4,40.8-17.1,62.2-23.2
		c48.9-13.8,102.9-16,156.1-6.4l0.1-0.5c-53.3-9.7-107.4-7.4-156.4,6.4c-21.5,6.1-42.2,14.8-62.3,23.2c-12.9,5.4-26.3,11-39.8,15.9
		c-56.4,20.4-89.2,17.8-109,14.1c-19.4-3.6-38.6-11.3-57-23c-22-13.9-38.8-31.4-48.6-50.4c-10.1-19.6-18.9-48.1-7.7-111.4
		c0.8-4.8,1.8-9.7,2.6-14.4c5.9-31.8,12-64.7,5.3-97.6c-4.4-21.6-14.8-42.7-30-61.1c-14.9-18-33.6-32.4-54.2-41.8
		c-23.3-10.7-49.4-15.3-75.1-13.8l-0.5,0.5C59.2,199.8,85.4,204.4,108.8,215.1z"/>
	<path class="st0" d="M118.2,204.9c19.9,9.6,38.1,23.9,52.6,41.5c14.9,17.9,25.3,38.5,30.1,59.4c7.3,31.8,2.7,63.6-1.7,94.4
		c-0.7,4.7-1.4,9.6-2,14.3c-4.9,36.4-6.9,74.7,11.1,108.5c10,18.6,26.6,35.8,48.2,49.7c18,11.6,36.7,19.5,55.8,23.6
		c17.1,3.6,34.9,4.2,54.5,1.9c15.7-1.9,32.7-5.7,52-11.7c13.3-4.2,26.6-9.1,39.4-13.8c19.5-7.2,39.7-14.7,60.6-19.7
		c47.5-11.3,100.4-12.2,152.9-2.5l0.1-0.5c-52.6-9.7-105.5-8.9-153.1,2.5c-20.9,5-41.1,12.5-60.6,19.7c-12.8,4.7-26,9.6-39.4,13.8
		c-55.2,17.2-87.1,13.8-106.2,9.8c-19-4-37.7-11.9-55.6-23.5c-21.5-13.8-38.1-31-48-49.5c-18-33.7-16-71.9-11.1-108.2
		c0.6-4.8,1.3-9.6,2-14.3c4.4-30.8,9-62.7,1.7-94.6c-4.8-21-15.3-41.6-30.2-59.6c-14.6-17.6-32.9-32-52.8-41.6
		c-22.7-10.9-48.2-16.2-73.4-15.7l-0.5,0.5C69.8,188.7,95.4,194,118.2,204.9z"/>
	<path class="st0" d="M66.7,177.5c21.5,1.8,41.9,7.6,60.9,17.2c39.8,20.2,71.1,58.3,81.7,99.3c7.9,30.8,4.8,61.6,1.8,91.5
		c-0.5,4.7-0.9,9.5-1.4,14.3c-3.2,35.4-3.6,72.7,14.5,105.4c10.1,18.1,26.5,35,47.5,48.7c17.5,11.5,35.8,19.6,54.3,24
		c38.4,9.2,75.6,1.9,103.8-5.5c13.2-3.5,26.3-7.6,39-11.7c19-6,38.7-12.3,58.8-16.2c46-8.9,97.8-8.4,149.6,1.4l0.1-0.5
		c-51.9-9.8-103.7-10.3-149.8-1.4c-20.2,3.9-39.9,10.2-58.9,16.2c-12.7,4-25.8,8.2-39,11.6c-28.1,7.3-65.3,14.6-103.5,5.5
		c-18.5-4.4-36.7-12.5-54.2-24c-20.9-13.8-37.3-30.5-47.3-48.6c-18.1-32.6-17.6-69.7-14.4-105.1c0.4-4.7,0.9-9.6,1.4-14.2
		c3-29.9,6.1-60.7-1.8-91.6c-10.6-41.1-42-79.3-82-99.6c-19-9.7-39.5-15.5-61.1-17.3c-3.5-0.3-7-0.5-10.4-0.5l-0.4,0.5
		C59.4,177,63.1,177.2,66.7,177.5z"/>
	<path class="st0" d="M136.9,184.6c38.3,20.6,69.2,58,80.6,97.7c8.5,29.8,6.9,59.6,5.4,88.5c-0.2,4.7-0.5,9.5-0.7,14.2
		c-1.5,34.4-0.3,70.6,17.9,102.2c10.3,17.8,26.1,33.9,46.8,47.8c17.1,11.4,34.9,19.7,52.9,24.5c37.1,9.9,73.5,4.6,101.1-1.2
		c13.1-2.7,26.2-6.2,38.8-9.5c18.4-4.8,37.5-9.9,57-12.7c44.4-6.5,95-4.7,146.4,5.3l0.1-0.5c-51.4-10-102.1-11.8-146.5-5.3
		c-19.5,2.9-38.6,7.9-57.1,12.7c-12.6,3.3-25.6,6.7-38.7,9.5c-27.5,5.7-63.8,11-100.8,1.2c-18-4.8-35.7-13-52.8-24.4
		c-20.7-13.9-36.4-29.9-46.7-47.7c-18.1-31.5-19.3-67.6-17.8-101.9c0.2-4.7,0.5-9.5,0.7-14.2c1.5-28.9,3.1-58.8-5.4-88.6
		c-11.4-39.8-42.4-77.3-80.9-98c-21.6-11.6-45.6-18.4-69.6-20l-0.4,0.5C91.2,166.1,115.3,172.9,136.9,184.6z"/>
	<path class="st0" d="M146.3,174.4c18,10.2,34.8,24.4,48.6,40.9c14.1,16.9,24.8,36,30.9,55.2c9.1,28.8,9,57.6,8.9,85.4
		c0,4.7,0,9.5,0,14.2c0.1,14.9,0.6,32.5,3.7,50.1c3.3,18.8,9,34.7,17.5,48.9c10.4,17.3,26,33.1,46.2,46.9
		c16.6,11.4,33.9,19.8,51.5,25c15.7,4.7,32.1,7,50.2,7.1c14.4,0.1,29.7-1.2,48.1-4c13.1-2,26.1-4.7,38.6-7.3
		c17.9-3.7,36.3-7.5,55.1-9.3c43.1-4.2,91.3-1.1,143.1,9.2l0.1-0.5c-51.9-10.3-100.1-13.4-143.3-9.2c-18.8,1.8-37.3,5.6-55.1,9.3
		c-12.5,2.6-25.5,5.3-38.6,7.2c-51.3,7.8-79.4,2.4-98.1-3.1c-17.5-5.2-34.8-13.6-51.3-24.9c-20.2-13.8-35.6-29.5-46-46.7
		c-10.8-17.9-20.8-42.3-21.2-98.8c0-4.7,0-9.5,0-14.2c0.1-27.9,0.2-56.8-8.9-85.6c-6.1-19.3-16.9-38.4-31-55.4
		c-13.8-16.6-30.7-30.7-48.7-41c-20.9-11.9-44.3-19.4-67.7-22.1l-0.4,0.5C101.9,155,125.4,162.5,146.3,174.4z"/>
	<path class="st0" d="M155.7,164.2c36,21.6,65.3,57,78.4,94.4c9.6,27.7,11,55.5,12.3,82.4c0.2,4.7,0.5,9.5,0.7,14.2
		c1.8,30.2,5.4,65,24.6,95.9c10.5,16.8,25.8,32.3,45.5,46c16.1,11.3,33,19.8,50,25.5c34.3,11.3,67.6,10.1,95.6,7.5
		c11.9-1.1,23.8-3.1,35.2-5.1c18.3-3.1,37.2-6.4,56.3-5.8c40.8,1.1,93.6,3.6,139.9,13.1l0.1-0.5c-46.3-9.4-99.1-11.9-140-13.1
		c-19.2-0.5-38.1,2.7-56.4,5.8c-11.4,2-23.3,4-35.2,5.1c-28,2.6-61.2,3.8-95.4-7.5c-17-5.6-33.8-14.2-49.9-25.4
		c-19.6-13.7-34.9-29.1-45.4-45.8c-19.2-30.7-22.7-65.5-24.5-95.6c-0.3-4.7-0.5-9.5-0.7-14.2c-1.3-26.9-2.7-54.7-12.4-82.5
		c-13.2-37.6-42.6-73-78.7-94.7c-20.2-12.1-42.9-20.4-65.7-24.3l-0.4,0.4C112.7,143.8,135.5,152,155.7,164.2z"/>
	<path class="st0" d="M165.1,154c34.5,22,63.4,56.7,77.3,92.8c10.2,26.7,13,53.4,15.7,79.3c0.5,4.7,1,9.5,1.6,14.3
		c3.4,29.3,8.7,63,28,92.7c10.6,16.3,25.7,31.4,44.8,45c15.7,11.2,32,19.9,48.6,25.9c32.2,11.7,64.4,11.8,92.9,11.8
		c13.3,0,26.4-1.5,39.1-2.9c16.4-1.9,33.4-3.8,50.4-2.4c46.2,4,94,8,136.6,17l0.1-0.5c-42.6-8.9-90.4-13-136.7-17
		c-17-1.5-34,0.5-50.5,2.4c-12.7,1.4-25.8,2.9-39.1,2.9c-28.4,0-60.6-0.1-92.7-11.8c-16.5-6-32.8-14.7-48.5-25.9
		c-19.1-13.6-34.1-28.7-44.7-44.9c-19.3-29.6-24.5-63.3-27.9-92.5c-0.5-4.7-1.1-9.6-1.6-14.3c-2.7-25.9-5.6-52.6-15.8-79.4
		c-14-36.2-42.9-71-77.5-93.1c-22.7-14.5-44.9-22.4-63.7-26.6l-0.4,0.4C120.1,131.6,142.4,139.5,165.1,154z"/>
	<path class="st0" d="M174.5,143.9c33.6,22.7,61.4,55.9,76.3,91.2c10.7,25.6,15,51.2,19.1,76.1c0.8,4.7,1.6,9.6,2.4,14.4
		c5,28.3,12,60.9,31.4,89.5c10.7,15.8,25.6,30.6,44.2,44.1c15.2,11.1,31.1,20,47.2,26.4c31.8,12.7,63.4,15.3,90.1,16.1
		c13.3,0.4,26.4,0.2,39.1-0.1c15.8-0.3,32.1-0.6,48.3,0.4c46.8,2.8,93.4,12.3,133.3,20.9l0.1-0.5c-40-8.6-86.6-18-133.4-20.9
		c-16.2-1-32.6-0.7-48.4-0.4c-12.7,0.2-25.8,0.5-39.1,0.1c-26.7-0.8-58.3-3.4-90-16.1c-16-6.4-31.9-15.3-47.1-26.4
		c-18.5-13.5-33.4-28.3-44.1-44c-19.3-28.5-26.3-61-31.3-89.3c-0.8-4.8-1.7-9.7-2.4-14.4c-4.1-24.8-8.4-50.5-19.1-76.2
		c-14.9-35.4-42.8-68.7-76.4-91.4c-18.9-12.8-40-22.6-61.6-28.9l-0.4,0.4C134.4,121.2,155.6,131.1,174.5,143.9z"/>
	<path class="st0" d="M183.9,133.7c32.1,23,59.5,55.7,75.2,89.6c11.2,24.5,16.8,49,22.3,72.8c1.1,4.8,2.3,9.8,3.4,14.7
		c6.9,28.6,15.3,58.8,34.7,86.3c10.8,15.2,25.5,29.8,43.5,43.2c14.8,11,30.2,20,45.7,26.9c30.6,13.4,61.4,17.9,87.4,20.4
		c13.5,1.3,26.8,2,39.8,2.7c14.9,0.8,30.3,1.5,45.6,3.3c40.8,4.8,81.2,13.8,116.9,21.8c4.5,1,8.9,2,13.2,2.9l0.1-0.5
		c-4.3-1-8.7-1.9-13.2-2.9c-35.6-8-76.1-17-116.9-21.8c-15.2-1.8-30.7-2.6-45.6-3.3c-12.9-0.7-26.2-1.3-39.7-2.7
		c-26-2.6-56.7-7-87.3-20.4c-15.5-6.8-30.9-15.8-45.6-26.8c-18-13.4-32.6-27.8-43.4-43.1c-19.4-27.4-27.8-57.6-34.6-86.2
		c-1.2-4.9-2.3-9.9-3.4-14.7c-5.5-23.8-11.1-48.3-22.3-72.9c-15.7-34-43.2-66.8-75.3-89.8c-18.1-12.9-38.5-23.6-59.5-31.3l-0.4,0.4
		C145.4,110.1,165.8,120.7,183.9,133.7z"/>
	<path class="st0" d="M193.3,123.5c30.7,23.4,57.7,55.4,74.1,88c11.6,23.3,18.6,46.7,25.4,69.3c1.5,4.9,3,10.1,4.6,15.1
		c8.5,27.6,18.5,56.7,38.1,83.2c10.9,14.7,25.4,28.9,42.9,42.2c14.3,10.9,29.2,20.1,44.3,27.4c29.4,14.1,58.1,20.2,84.7,24.7
		c13.9,2.4,27.6,4,40.9,5.7c14.5,1.8,28.3,3.5,42.3,6c31.6,5.6,61.7,12.9,90.8,20c12.6,3.1,24.5,6,36,8.6l0.1-0.5
		c-11.5-2.6-23.4-5.5-36-8.6c-29.1-7.1-59.3-14.4-90.9-20.1c-14.1-2.5-27.8-4.2-42.4-6c-13.3-1.6-27-3.3-40.9-5.7
		c-26.6-4.5-55.2-10.6-84.6-24.7c-15-7.2-29.9-16.4-44.2-27.3c-17.5-13.3-31.8-27.4-42.8-42.1c-19.5-26.4-29.5-55.5-38-83
		c-1.5-5-3.1-10.1-4.5-15.1c-6.8-22.6-13.8-46.1-25.4-69.4c-16.4-32.6-43.5-64.8-74.2-88.2c-19.7-15-39.7-25.9-57.4-33.7l-0.4,0.4
		C153.6,97.6,173.5,108.5,193.3,123.5z"/>
	<path class="st0" d="M202.7,113.3c29.7,24,55.6,54.7,73,86.4c12,22.1,20.3,44.2,28.3,65.7c1.9,5.1,3.9,10.5,5.9,15.7
		c10.2,26.5,21.8,54.6,41.5,80c11.1,14.2,25.3,28.1,42.2,41.3c13.9,10.8,28.3,20.2,42.9,27.8c28.3,14.9,56.1,22.7,82,29
		c14.5,3.5,28.8,6.4,42.7,9.1c13.2,2.6,25.7,5.1,38.5,8.1c23,5.5,45.2,11.6,66.7,17.6c20.2,5.6,39.3,10.8,56.9,15l0.1-0.5
		c-17.6-4.2-36.7-9.4-56.9-15c-21.5-5.9-43.6-12-66.7-17.6c-12.7-3.1-25.2-5.5-38.5-8.1c-13.8-2.7-28.1-5.6-42.6-9.1
		c-25.8-6.3-53.6-14.2-81.8-29c-14.5-7.6-28.9-17-42.8-27.8c-16.9-13.2-31.1-27-42.1-41.2c-19.6-25.4-31.2-53.4-41.4-79.9
		c-2-5.2-4-10.5-5.9-15.7c-8-21.4-16.2-43.6-28.3-65.7c-17.4-31.7-43.4-62.5-73.1-86.6c-16.7-13.5-35.2-25.6-55.1-36.2l-0.3,0.4
		C167.5,87.7,185.9,99.8,202.7,113.3z"/>
	<path class="st0" d="M212.1,103.2c28.3,24.4,53.8,54.5,71.9,84.8c12.3,20.7,21.7,41.5,30.8,61.7c2.5,5.5,5,11.1,7.6,16.6
		c11.8,25.5,25,52.4,44.8,76.8c11.2,13.7,25.1,27.3,41.5,40.4c13.4,10.7,27.4,20.2,41.4,28.3c27.3,15.6,54.2,25.3,79.2,33.4
		c15.5,5,30.8,9.2,45.5,13.3c11.6,3.2,22.5,6.2,33.5,9.6c14.4,4.4,28.5,8.9,42.2,13.3c28.1,9,54.7,17.5,78.1,23.2l0.1-0.5
		c-23.4-5.7-50-14.2-78.1-23.2c-13.6-4.4-27.8-8.9-42.2-13.3c-11.1-3.4-22-6.4-33.5-9.6c-14.7-4.1-30-8.3-45.5-13.3
		c-25-8.1-51.8-17.7-79.1-33.3c-14-8-28-17.5-41.4-28.3c-16.4-13-30.3-26.6-41.5-40.3c-19.8-24.4-33-51.3-44.8-76.7
		c-2.6-5.5-5.1-11.2-7.6-16.6c-9.1-20.1-18.5-41-30.8-61.7c-18.1-30.4-43.7-60.5-72-84.9c-15.9-13.7-33.4-26.5-52.9-38.7l-0.3,0.4
		C178.7,76.7,196.2,89.5,212.1,103.2z"/>
	<path class="st0" d="M221.5,93c26.9,24.7,52,54.3,70.8,83.2c12.4,19.2,22.7,38.4,32.7,57c3.2,6,6.5,12.2,9.9,18.2
		c13.4,24.3,28.1,50.1,48.2,73.6c11.3,13.2,25,26.5,40.9,39.4c13,10.6,26.4,20.3,40,28.8c26.5,16.5,52.4,27.9,76.5,37.7
		c17.2,7,34,13,50.3,18.8c9.2,3.3,17.9,6.4,26.7,9.7c4.9,1.8,9.8,3.7,14.6,5.5c37.5,14.1,73,27.4,102.5,34.9l0.1-0.5
		c-29.5-7.4-64.9-20.8-102.5-34.8c-4.8-1.8-9.7-3.6-14.6-5.5c-8.8-3.3-17.5-6.4-26.7-9.7c-16.2-5.8-33-11.8-50.2-18.8
		c-24-9.8-49.9-21.1-76.4-37.6c-13.5-8.5-27-18.1-39.9-28.7c-15.8-12.9-29.5-26.2-40.8-39.4c-20-23.6-34.8-49.3-48.1-73.6
		c-3.3-6-6.6-12.2-9.9-18.2c-10-18.6-20.3-37.9-32.7-57.1c-18.8-29-44-58.5-70.9-83.3c-17.2-15.8-34.4-29.4-50.6-41.3l-0.3,0.4
		C187.1,63.6,204.3,77.2,221.5,93z"/>
	<path class="st0" d="M230.8,82.8c25.9,25.5,50,53.7,69.8,81.6c12.1,17.2,22.9,34.5,33.5,51.2c4.4,6.9,8.9,14.1,13.3,21.1
		c14.8,23.1,31.1,47.5,51.5,70.5c11.4,12.7,24.9,25.7,40.2,38.5c12.5,10.5,25.5,20.4,38.6,29.2c26,17.7,51.9,31.1,73.8,42
		c20.3,10,39.9,18.7,58.8,27.1c5.4,2.4,10.7,4.7,16,7.1c39.6,17.6,80.9,35.6,113.8,44.2l0.1-0.5c-32.8-8.6-74.2-26.6-113.7-44.2
		c-5.3-2.4-10.6-4.7-16-7.1c-18.9-8.4-38.5-17-58.8-27c-21.9-10.8-47.7-24.3-73.7-41.9c-13-8.9-26-18.7-38.5-29.2
		c-15.2-12.8-28.8-25.7-40.2-38.5c-20.5-22.9-36.7-47.3-51.5-70.4c-4.5-7-9-14.1-13.3-21c-10.5-16.7-21.4-34-33.5-51.2
		c-19.7-27.9-43.9-56.2-69.8-81.7c-16.5-16.2-32.8-30.7-48.3-43.9l-0.3,0.4C198,52.1,214.4,66.6,230.8,82.8z"/>
	<path class="st0" d="M240.2,72.6c24.7,26,48.4,53.6,68.7,80c10.8,14.1,21.2,28.4,31.2,42.2c6.5,8.9,13.1,18.1,19.8,27
		c15.4,20.7,33.6,44.7,54.9,67.3c11.6,12.3,24.9,24.9,39.5,37.6c12.1,10.5,24.6,20.5,37.1,29.7c26.1,19.3,51.7,34.9,71,46.3
		c24.8,14.6,48.6,27.2,72.8,39.8c49.8,26,83.9,40.9,110.6,48.1l0.1-0.5c-26.6-7.3-60.7-22.1-110.5-48.1
		c-24.2-12.6-48-25.2-72.7-39.8c-19.4-11.4-44.9-27-71-46.3c-12.5-9.3-25-19.2-37.1-29.7c-14.7-12.6-27.9-25.3-39.5-37.5
		c-21.2-22.6-39.5-46.6-54.9-67.3c-6.6-8.9-13.3-18.1-19.8-27c-10-13.8-20.4-28.1-31.2-42.2c-20.2-26.4-44-54-68.7-80
		c-15.8-16.6-31.1-31.8-45.9-46.5l-0.3,0.4C209.2,40.8,224.4,56,240.2,72.6z"/>
	<path class="st0" d="M233.3,44c5.4,6.1,10.8,12.2,16.3,18.4c24,27.1,46.8,53.4,67.6,78.4c5.7,6.8,11.4,13.7,17,20.5
		c12.5,15,25.4,30.6,38.2,45.7c16.5,19.3,36.3,42,58.3,64.1c11.8,11.9,24.9,24.2,38.9,36.6c12,10.6,24,20.8,35.7,30.2
		c20.4,16.4,42.1,32.5,68.3,50.6c22.2,15.3,45.3,30.2,70.7,45.4c45.5,27.4,80.6,44.4,107.3,52l0.1-0.5c-26.6-7.6-61.7-24.6-107.2-52
		c-25.3-15.3-48.4-30.1-70.6-45.4C547.7,370,526,354,505.6,337.5c-11.7-9.4-23.7-19.5-35.7-30.2c-14-12.4-27-24.7-38.9-36.6
		c-22-22.2-41.8-44.8-58.2-64.1c-12.9-15-25.8-30.6-38.2-45.7c-5.6-6.8-11.3-13.6-17-20.5c-20.8-25-43.6-51.3-67.6-78.4
		c-5.5-6.2-10.9-12.4-16.3-18.4c-9.4-10.6-18.4-20.8-27.2-30.8l-0.3,0.4C214.9,23.2,224,33.5,233.3,44z"/>
	<path class="st0" d="M230.7,16c-4.2-5.4-8.3-10.8-12.3-16L218,0.4c4,5.3,8.1,10.6,12.3,16c50.4,64.8,113.1,134.8,181.2,202.6
		c66.3,65.9,133.4,125.3,194,171.7c63.5,48.7,116,80,151.8,90.7l0.1-0.5c-70.7-21-206.3-124-345.6-262.3
		C343.7,150.8,281,80.8,230.7,16z"/>
</g>
</svg>
